<?xml version="1.0" encoding="utf-8"?>
<!-- Generator: Adobe Illustrator 24.1.3, SVG Export Plug-In . SVG Version: 6.00 Build 0)  -->
<svg version="1.2" baseProfile="tiny" id="g-mall-Artboard_1-img" xmlns="http://www.w3.org/2000/svg" xmlns:xlink="http://www.w3.org/1999/xlink"
	 x="0px" y="0px" viewBox="0 0 1124.523 917.756" overflow="visible" xml:space="preserve">
<g>
	<polyline fill="#FFFFFF" stroke="#231F20" stroke-miterlimit="10" points="470.503,845.217 470.503,852.155 337.683,852.155 
		337.683,844.994 	"/>
	<line fill="#FFFFFF" stroke="#231F20" stroke-miterlimit="10" x1="403.714" y1="851.702" x2="403.714" y2="847.901"/>
	<g>
		<path fill="#D5D5E5" d="M505.447,640.652l-31.223-114.979l198.734-53.524l1.982-0.991l27.258-1.487l3.965,18.337l23.293-5.947
			l3.469,0.991l109.031,270.1l-7.93,4.956l5.947,15.859l135.794-53.029l-4.46-15.859l-97.137,39.648l-45.595-103.084l9.912-5.452
			v-11.894l34.692-14.868l19.824,42.621l59.472-23.293l-18.833-43.117l28.249-11.399l-6.621-29.478l-39.47,15.106l-14.868-34.196
			l-50.551,20.815l13.877,35.683l-34.196,14.868l-6.938-10.903l-11.894,3.965l-50.055-111.509l11.399-31.223l-5.452-26.267
			l-19.328-19.328l2.477-288.355c0,0-28.35-2.132-28.248,1.404c0.102,3.536-1.982,120.43-1.982,120.43l-254.737-0.991l-7.434-7.93
			l0.496-100.606l-19.328-0.991l-1.982,101.102l-7.93,8.921l-114.979-1.487l-43.233-35.863l-34.53,45.81l45.549,34.162
			L341.9,507.832l-15.859,27.753l-92.181,25.275l5.947,21.311l90.694-23.789l10.903,5.947l7.434,22.302l54.716-13.336l-7.138-22.842
			l4.46-5.947l61.95-16.85l6.443,28.497l36.419,142.917l55.266-14.31l-11.894-55.011L505.447,640.652z M396.415,516.258
			l-26.267-14.372l-59.967-231.444l5.947-8.425l253.25,1.982l0.991,82.765l11.399-0.496l0.991-81.773l136.289,0.496l0.991,141.741
			l-31.718,10.903l5.947,20.319L396.415,516.258z"/>
	</g>
	<a xlink:href="https://www.macys.com/" >
		<polygon fill="#94D5EC" points="256.657,103.425 142.174,250.618 197.185,295.221 308.695,147.286 		"/>
	</a>
	<a xlink:href="https://www.sears.com/" >
		<polygon fill="#94D5EC" points="600.106,45.44 872.189,47.692 871.445,113.734 598.619,114.484 		"/>
	</a>
	<a xlink:href="https://www.jcpenney.com/" >
		<polygon fill="#94D5EC" points="246.098,611.306 468.374,553.321 517.438,745.86 321.925,795.668 289.215,777.826 		"/>
	</a>
	<a xlink:href="https://www.bestbuy.com/https://www.bestbuy.com/" >
		<polygon fill="#94D5EC" points="717.808,823.028 975.023,719.449 1001.29,781.894 743.579,888.447 		"/>
	</a>
	<a xlink:href="https://www.simon.com/mall/the-mall-of-new-hampshire/stores" >
		<polygon fill="#1C9195" points="270.534,197.093 314.146,233.272 429.125,234.758 437.054,225.838 439.037,124.736 
			329.014,122.753 		"/>
	</a>
	<a xlink:href="https://www.simon.com/mall/the-mall-of-new-hampshire/stores" >
		<polygon fill="#1C9195" points="236.337,243.184 281.932,277.38 341.9,507.832 326.04,535.586 233.859,560.861 170.423,325.453 		
			"/>
	</a>
	<a xlink:href="https://www.simon.com/mall/the-mall-of-new-hampshire" >
		<polygon fill="#7D878E" points="310.181,270.441 316.129,262.016 569.379,263.999 570.37,346.763 581.769,346.268 582.76,264.494 
			719.049,264.99 720.04,406.731 688.322,417.634 694.269,437.953 396.415,516.258 370.149,501.885 		"/>
	</a>
	<a xlink:href="https://www.simon.com/mall/the-mall-of-new-hampshire/stores" >
		<polygon fill="#E84836" points="598.619,113.833 711.801,113.59 722.87,113.478 720.04,235.254 465.303,234.263 457.869,226.333 
			458.365,125.727 584.247,125.727 		"/>
	</a>
	<a xlink:href="https://www.simon.com/mall/the-mall-of-new-hampshire/stores" >
		<polygon fill="#E84836" points="750.278,111.727 897.834,113.716 896.841,318.084 870.012,318.582 867.528,407.589 
			919.695,408.086 956.46,544.332 916.217,559.746 901.312,525.436 850.636,546.321 864.547,582.123 830.266,597.04 
			823.311,586.101 811.387,590.078 761.208,478.198 772.635,446.871 767.17,420.517 747.794,401.125 		"/>
	</a>
	<polygon fill="#9F1F60" points="239.807,582.172 330.501,558.383 341.404,564.331 348.838,586.632 246.993,614.138 	"/>
	<polygon fill="#9F1F60" points="396.415,550.454 400.876,544.507 462.825,527.656 469.268,556.153 403.849,574.242 	"/>
	<a xlink:href="https://www.simon.com/mall/the-mall-of-new-hampshire/stores" >
		<polygon fill="#9F1F60" points="474.224,525.674 672.958,472.149 700.216,562.844 631.824,612.899 619.93,611.412 
			505.447,640.653 		"/>
	</a>
	<a xlink:href="https://www.simon.com/mall/the-mall-of-new-hampshire/stores" >
		<polygon fill="#EADE20" points="674.273,471.28 702.199,469.672 706.163,488.009 729.457,482.061 732.926,483.053 
			841.957,753.153 834.028,758.109 839.975,773.968 718.553,824.519 631.824,612.899 700.216,562.844 673.006,472.248 		"/>
	</a>
	<a xlink:href="https://www.simon.com/mall/the-mall-of-new-hampshire/dining" >
		<polygon fill="#2EB04B" points="838.488,624.298 873.18,609.43 893.004,652.051 952.475,628.758 933.643,585.641 961.892,574.242 
			995.097,694.673 874.171,744.728 828.576,641.644 838.488,636.192 		"/>
	</a>
</g>
<style>
#g-mall-Artboard_1-img rect, #g-mall-Artboard_1-img circle, #g-mall-Artboard_1-img path, #g-mall-Artboard_1-img line, #g-mall-Artboard_1-img polyline { vector-effect: non-scaling-stroke; }
</style>
</svg>

