<?xml version="1.0" encoding="utf-8"?>
<!-- Generator: Adobe Illustrator 25.1.0, SVG Export Plug-In . SVG Version: 6.00 Build 0)  -->
<svg version="1.1" id="Capa_1" xmlns="http://www.w3.org/2000/svg" xmlns:xlink="http://www.w3.org/1999/xlink" x="0px" y="0px"
	 viewBox="0 0 51.2 51.2" style="enable-background:new 0 0 51.2 51.2;" xml:space="preserve">
<style type="text/css">
	.st0{fill:#F89E00;}
	.st1{fill:#7C5748;}
	.st2{fill:#5F4C44;}
	.st3{fill:#DB1F16;}
	.st4{fill:#B22627;}
	.st5{fill:#C0C9D2;}
	.st6{fill:#A6AEBA;}
	.st7{fill:#D38302;}
</style>
<path class="st0" d="M23.4,32.7c2.1-0.3,5-2.1,9.8-6.9C41.5,17.4,48,7.6,45.9,5.5c-2.1-2.1-12,4.4-20.3,12.7
	c-4.8,4.8-6.6,7.8-6.9,9.8l0.5,4.4L23.4,32.7z"/>
<path class="st1" d="M20.2,36.8l-1.4-4.1L15,31.6c0,0-4.8-1.2-7.8,4.2c-3,5.4,1,10.3,1,10.3c1.3-2.4,2-2.2,4.9-2.8
	S20.2,40.4,20.2,36.8z"/>
<path class="st2" d="M17,33.6l-2-2c0,0-4.8-1.2-7.8,4.2c-3,5.4,1,10.3,1,10.3C6.3,38.9,14.6,34.8,17,33.6z"/>
<path class="st3" d="M9,33.5c-0.6,0.6-1.2,1.3-1.8,2.3c-3,5.4,1,10.3,1,10.3c1.3-2.4,2-2.2,4.9-2.8c0.5-0.1,1-0.3,1.5-0.5
	c-0.1-0.5-0.1-1.1,0.3-1.8c0,0-2.1-0.6-3.5-2c-0.3-0.3-0.5-0.7-0.7-1.1C10.3,36.6,10.6,35.1,9,33.5z"/>
<path class="st4" d="M9,33.5c-0.6,0.6-1.2,1.3-1.8,2.3c-3,5.4,1,10.3,1,10.3c-0.9-3.4,0.5-6.2,2.5-8.3C10.3,36.6,10.6,35.1,9,33.5z"
	/>
<path class="st5" d="M23.8,33l-5.4-5.4c-0.4-0.4-1.1-0.4-1.5,0l-2.1,2.1c-0.4,0.4-0.4,1.1,0,1.5l5.4,5.4c0.4,0.4,1.1,0.4,1.5,0
	l2.1-2.1C24.2,34.1,24.2,33.4,23.8,33z"/>
<path class="st6" d="M16.9,31.9l2.1-2.1c0.4-0.4,1.1-0.4,1.6,0l-2.2-2.2c-0.4-0.4-1.1-0.4-1.6,0l-2.1,2.1c-0.4,0.4-0.4,1.1,0,1.6
	l2.2,2.2C16.4,33,16.4,32.3,16.9,31.9z"/>
<path class="st7" d="M27.6,20c-4.8,4.8-6.9,7.5-7.6,9.1L18.7,28c0.3-2.1,2.1-5,6.9-9.8C34,9.9,43.8,3.4,45.9,5.5
	C44.9,4.4,35.8,11.8,27.6,20z"/>
</svg>
