<?xml version="1.0" encoding="utf-8"?>
<!-- Generator: Adobe Illustrator 25.1.0, SVG Export Plug-In . SVG Version: 6.00 Build 0)  -->
<svg version="1.1" baseProfile="basic" id="Capa_1" xmlns="http://www.w3.org/2000/svg" xmlns:xlink="http://www.w3.org/1999/xlink"
	 x="0px" y="0px" viewBox="0 0 62.4 62.4" xml:space="preserve">
<g>
	<path style="fill:#596C76;" d="M37.9,13.5h-2.9V9.4h2.9c0.7,0,1.2,0.5,1.2,1.2v1.7C39.1,12.9,38.6,13.5,37.9,13.5z"/>
	<path style="fill:#01C0FA;" d="M18.7,27.4h23.9v28H18.7V27.4z"/>
	<path style="fill:#FEA95C;" d="M16.3,25.4c0,1.1,0.9,1.9,1.9,1.9H43c1.1,0,1.9-0.9,1.9-1.9c0-1.1-0.9-1.9-1.9-1.9H18.2
		C17.2,23.5,16.3,24.4,16.3,25.4L16.3,25.4z"/>
	<path style="fill:#C365AF;" d="M23.3,27.4v12c0,1.1,0.9,2,2,2c1.1,0,2-0.9,2-2v-6.5c0-1.1,0.9-2,2-2c1.1,0,2,0.9,2,2v1.3
		c0,1.1,0.9,2,2,2c1.1,0,2-0.9,2-2v-6.8L23.3,27.4L23.3,27.4z"/>
	<path style="fill:#FE9738;" d="M16.3,57.4c0,1.1,0.9,1.9,1.9,1.9H43c1.1,0,1.9-0.9,1.9-1.9s-0.9-1.9-1.9-1.9H18.2
		C17.2,55.4,16.3,56.3,16.3,57.4L16.3,57.4z"/>
	<path style="fill:#FE860A;" d="M43,23.5h-2.8c1.1,0,1.9,0.9,1.9,1.9c0,1.1-0.9,1.9-1.9,1.9H43c1.1,0,1.9-0.9,1.9-1.9
		C45,24.4,44.1,23.5,43,23.5z"/>
	<path style="fill:#FE7701;" d="M43,55.4h-2.8c1.1,0,1.9,0.9,1.9,1.9s-0.9,1.9-1.9,1.9H43c1.1,0,1.9-0.9,1.9-1.9
		C45,56.3,44.1,55.4,43,55.4z"/>
	<path style="fill:#01C0FA;" d="M35.1,17h-8.9V6.7c0-0.7,0.6-1.3,1.3-1.3h6.2c0.7,0,1.3,0.6,1.3,1.3L35.1,17L35.1,17z"/>
	<path style="fill:#E8EDF2;" d="M40.8,23.5c-0.9-2.9-3-5.2-5.7-6.5h-8.9c-2.7,1.2-4.8,3.6-5.7,6.5H40.8z"/>
	<path style="fill:#E8EDF2;" d="M62.4,11.4c0-1.9-1.4-3.6-3.3-3.8c0.2-0.5,0.3-1.1,0.3-1.7c-0.1-1.9-1.7-3.5-3.6-3.7
		c-2.3-0.1-4.1,1.7-4.1,3.9c0,0.3,0,0.6,0.1,0.9c0.3,1.4-0.6,2.9-2,3.2l-6,0.9c-0.4,0.1-0.4,0.6,0,0.7l6,0.9c1.5,0.3,2.3,1.7,2,3.2
		c-0.1,0.3-0.1,0.7-0.1,1.1c0.1,2,1.7,3.6,3.6,3.7c2.3,0.1,4.1-1.7,4.1-3.9c0-0.5-0.1-1-0.3-1.5C60.9,15,62.4,13.4,62.4,11.4
		L62.4,11.4z"/>
</g>
</svg>
